<svg id="Layer_1" data-name="Layer 1" xmlns="http://www.w3.org/2000/svg" xmlns:xlink="http://www.w3.org/1999/xlink" viewBox="0 0 185.99 185.99"><defs><style>.cls-1{fill:url(#linear-gradient);}</style><linearGradient id="linear-gradient" x1="4.22" y1="92.68" x2="190.16" y2="92.68" gradientTransform="translate(-26.87 38.27) rotate(-19.59)" gradientUnits="userSpaceOnUse"><stop offset="0" stop-color="#ffe000"/><stop offset="1" stop-color="#E7BF18"/></linearGradient></defs><title>pk 512 svg</title><path class="cls-1" d="M64.59,5.41A93,93,0,1,0,183.35,61.82,93,93,0,0,0,64.59,5.41Zm77.53,132.72-27.88-34,13.87,39L52.73,169.94,26,94.87q-6.53-18.34,6.66-23a13.9,13.9,0,0,1,10.79.47,13.17,13.17,0,0,1,7.23,7.86,14,14,0,0,1-.45,10.77,12.91,12.91,0,0,1-7.7,7.19q-4.2,1.5-9.64-.4l13.52,38q6.27-1.5,9.39-2.61A46.94,46.94,0,0,0,72.57,123,50.83,50.83,0,0,0,83.7,107.15a49.34,49.34,0,0,0,1.91-38.69q-7.15-20.1-26.07-28.94a49.92,49.92,0,0,0-18.36-4.77l-.47-1.32L83.64,18.15l17.89,50.28,2.26-19.49,35.6-12.68-4.93,39.19L180,124.64Z" transform="translate(-2.77 0)"/></svg>