<svg id="Layer_1" data-name="Layer 1" xmlns="http://www.w3.org/2000/svg" viewBox="0 0 185.99 185.99"><title>pk 512 svg</title><style>.cls-1{fill:#ffffff;}</style><path d="M66.21,9.37A93,93,0,1,0,185,65.79,93,93,0,0,0,66.21,9.37Zm77.53,132.72-27.88-34,13.87,39L54.34,173.91,27.62,98.83q-6.53-18.35,6.65-23a13.89,13.89,0,0,1,10.79.46,13.21,13.21,0,0,1,7.24,7.86,14,14,0,0,1-.46,10.77,12.9,12.9,0,0,1-7.69,7.2c-2.81,1-6,.85-9.65-.4l13.52,38a97.23,97.23,0,0,0,9.39-2.61,46.71,46.71,0,0,0,16.77-10.13,50.73,50.73,0,0,0,11.14-15.81,49.43,49.43,0,0,0,1.91-38.69Q80.07,52.34,61.15,43.48a49.87,49.87,0,0,0-18.36-4.77l-.47-1.32L85.25,22.11l17.9,50.28L105.4,52.9,141,40.23l-4.92,39.19,45.56,49.18Z" transform="translate(-4.38 -3.96)"/></svg>